<svg xmlns="http://www.w3.org/2000/svg" xmlns:xlink="http://www.w3.org/1999/xlink" fill="none" version="1.1" width="15.55555534362793" height="14" viewBox="0 0 15.55555534362793 14"><defs><clipPath id="master_svg0_119_44119"><rect x="0" y="0" width="15.55555534362793" height="14" rx="0"/></clipPath></defs><g clip-path="url(#master_svg0_119_44119)"><g><path d="M2.33349609375,3.20849609375C2.33349609375,2.7252410937500002,2.73975009375,2.33349609375,3.24090309375,2.33349609375L8.685346093749999,2.33349609375C9.186316093750001,2.33349609375,9.592756093750001,2.7252410937500002,9.592756093750001,3.20849609375L9.592756093750001,6.10693609375L8.79121609375,6.41682609375L7.47547609375,6.41682609375C7.30911609375,6.41682609375,7.17300609375,6.54807609375,7.17300609375,6.70849609375L7.17300609375,7.87516609375C7.17300609375,7.89156609375,7.17489609375,7.90615609375,7.17678609375,7.92255609375C7.22026609375,8.98167609375,7.63237609375,10.56214609375,9.04263609375,11.59573609375C8.932996093749999,11.64130609375,8.81200609375,11.66682609375,8.685346093749999,11.66682609375L6.87053609375,11.66682609375L6.87053609375,10.20849609375C6.87053609375,9.72542609375,6.46408609375,9.33349609375,5.963126093750001,9.33349609375C5.46216609375,9.33349609375,5.05571609375,9.72542609375,5.05571609375,10.20849609375L5.05571609375,11.66682609375L3.24090309375,11.66682609375C2.73975009375,11.66682609375,2.33349609375,11.27490609375,2.33349609375,10.79182609375L2.33349609375,3.20849609375ZM3.84584609375,6.41682609375C3.67872609375,6.41682609375,3.54337609375,6.54807609375,3.54337609375,6.70849609375L3.54337609375,7.29182609375C3.54337609375,7.45224609375,3.67872609375,7.58349609375,3.84584609375,7.58349609375L4.45077609375,7.58349609375C4.61713609375,7.58349609375,4.7532460937500005,7.45224609375,4.7532460937500005,7.29182609375L4.7532460937500005,6.70849609375C4.7532460937500005,6.54807609375,4.61713609375,6.41682609375,4.45077609375,6.41682609375L3.84584609375,6.41682609375ZM5.35818609375,7.29182609375C5.35818609375,7.45224609375,5.49429609375,7.58349609375,5.66065609375,7.58349609375L6.26559609375,7.58349609375C6.43195609375,7.58349609375,6.56806609375,7.45224609375,6.56806609375,7.29182609375L6.56806609375,6.70849609375C6.56806609375,6.54807609375,6.43195609375,6.41682609375,6.26559609375,6.41682609375L5.66065609375,6.41682609375C5.49429609375,6.41682609375,5.35818609375,6.54807609375,5.35818609375,6.70849609375L5.35818609375,7.29182609375ZM3.54337609375,4.95849609375C3.54337609375,5.11891609375,3.67872609375,5.25016609375,3.84584609375,5.25016609375L4.45077609375,5.25016609375C4.61713609375,5.25016609375,4.7532460937500005,5.11891609375,4.7532460937500005,4.95849609375L4.7532460937500005,4.37516609375C4.7532460937500005,4.21474609375,4.61713609375,4.08349609375,4.45077609375,4.08349609375L3.84584609375,4.08349609375C3.67872609375,4.08349609375,3.54337609375,4.21474609375,3.54337609375,4.37516609375L3.54337609375,4.95849609375ZM5.66065609375,4.08349609375C5.49429609375,4.08349609375,5.35818609375,4.21474609375,5.35818609375,4.37516609375L5.35818609375,4.95849609375C5.35818609375,5.11891609375,5.49429609375,5.25016609375,5.66065609375,5.25016609375L6.26559609375,5.25016609375C6.43195609375,5.25016609375,6.56806609375,5.11891609375,6.56806609375,4.95849609375L6.56806609375,4.37516609375C6.56806609375,4.21474609375,6.43195609375,4.08349609375,6.26559609375,4.08349609375L5.66065609375,4.08349609375ZM7.17300609375,4.95849609375C7.17300609375,5.11891609375,7.30911609375,5.25016609375,7.47547609375,5.25016609375L8.08040609375,5.25016609375C8.24676609375,5.25016609375,8.38287609375,5.11891609375,8.38287609375,4.95849609375L8.38287609375,4.37516609375C8.38287609375,4.21474609375,8.24676609375,4.08349609375,8.08040609375,4.08349609375L7.47547609375,4.08349609375C7.30911609375,4.08349609375,7.17300609375,4.21474609375,7.17300609375,4.37516609375L7.17300609375,4.95849609375ZM10.33191609375,6.44781609375C10.43966609375,6.40589609375,10.56065609375,6.40589609375,10.66841609375,6.44781609375L12.93689609375,7.32281609375C13.10899609375,7.39026609375,13.22239609375,7.55068609375,13.22239609375,7.72932609375C13.22239609375,8.88323609375,12.73279609375,10.80641609375,10.67408609375,11.63401609375C10.56254609375,11.67776609375,10.43777609375,11.67776609375,10.326246093750001,11.63401609375C8.26756609375,10.80641609375,7.77793609375,8.88323609375,7.77793609375,7.72932609375C7.77793609375,7.55068609375,7.87435609375,7.39026609375,8.06339609375,7.32281609375L10.33191609375,6.44781609375ZM10.50016609375,7.32464609375L10.50016609375,10.74990609375C11.78943609375,10.14833609375,12.22990609375,8.94521609375,12.30363609375,8.00458609375L10.50016609375,7.32464609375Z" fill="#FFFFFF" fill-opacity="1"/></g></g></svg>