<svg xmlns="http://www.w3.org/2000/svg" xmlns:xlink="http://www.w3.org/1999/xlink" fill="none" version="1.1" width="14" height="14" viewBox="0 0 14 14"><defs><clipPath id="master_svg0_114_46254"><rect x="0" y="0" width="14" height="14" rx="0"/></clipPath></defs><g clip-path="url(#master_svg0_114_46254)"><g><path d="M2.3335165937499998,11.66650390625L2.3335165937499998,8.16650390625C2.3335165937499998,5.58917390625,4.42285359375,3.49983390625,7.00018359375,3.49983390625C9.57751359375,3.49983390625,11.66688359375,5.58917390625,11.66688359375,8.16650390625L11.66688359375,11.66650390625L12.25018359375,11.66650390625L12.25018359375,12.83320390625L1.75018359375,12.83320390625L1.75018359375,11.66650390625L2.3335165937499998,11.66650390625ZM3.50018359375,8.16650390625L4.66685359375,8.16650390625C4.66685359375,6.87784390625,5.71152359375,5.83317390625,7.00018359375,5.83317390625L7.00018359375,4.66650390625C5.06718359375,4.66650390625,3.50018359375,6.23350390625,3.50018359375,8.16650390625ZM6.41685359375,1.16650390625L7.58351359375,1.16650390625L7.58351359375,2.91650390625L6.41685359375,2.91650390625L6.41685359375,1.16650390625ZM11.53735359375,2.80450390625L12.36218359375,3.62933390625L11.12551359375,4.86658390625L10.30009359375,4.041753906249999L11.53735359375,2.80450390625ZM1.63818359375,3.62933390625L2.46301659375,2.80450390625L3.70026359375,4.04117390625L2.8760135937499998,4.867173906250001L1.63818359375,3.62933390625Z" fill="#FFFFFF" fill-opacity="1"/></g></g></svg>