<svg xmlns="http://www.w3.org/2000/svg" xmlns:xlink="http://www.w3.org/1999/xlink" fill="none" version="1.1" width="24" height="24" viewBox="0 0 24 24"><defs><clipPath id="master_svg0_600_39688"><rect x="0" y="0" width="24" height="24" rx="0"/></clipPath></defs><g clip-path="url(#master_svg0_600_39688)"><g><path d="M2,13L8,13L8,21L2,21L2,13ZM16,8L22,8L22,21L16,21L16,8ZM9,3L15,3L15,21L9,21L9,3ZM4,15L4,19L6,19L6,15L4,15ZM11,5L11,19L13,19L13,5L11,5ZM18,10L18,19L20,19L20,10L18,10Z" fill="#9AABC9" fill-opacity="1"/></g></g></svg>