<svg xmlns="http://www.w3.org/2000/svg" xmlns:xlink="http://www.w3.org/1999/xlink" fill="none" version="1.1" width="14" height="14" viewBox="0 0 14 14"><defs><clipPath id="master_svg0_119_44103"><rect x="0" y="0" width="14" height="14" rx="0"/></clipPath></defs><g clip-path="url(#master_svg0_119_44103)"><g transform="matrix(-1,0,0,1,24.783203125,0)"><path d="M20.8775315625,8.783828281249999L22.040561562500002,8.783828281249999L22.040561562500002,7.36674828125L23.160501562500002,7.15833828125L23.160501562500002,11.70147828125L22.040561562500002,11.32635828125L22.040561562500002,9.74250828125L20.2314015625,9.74250828125L19.2406515625,8.45041828125L20.5329115625,7.78350828125L20.8775315625,8.783828281249999ZM15.0192415625,9.075598281249999L12.3916015625,7.45009828125L20.5760115625,2.28173828125L21.5236715625,2.28173828125L22.815901562500002,4.24069828125L22.815901562500002,4.90761828125L15.6222715625,9.11728828125L15.0192415625,9.11728828125L15.0192415625,9.075598281249999ZM16.009981562500002,9.40904828125L22.212891562499998,5.53278828125L22.859001562499998,6.1996582812500005L15.665371562499999,10.40937828125L15.0192415625,10.40937828125L14.6746215625,10.07591828125L14.3300015625,9.117298281250001Q15.2776615625,9.78415828125,15.3207515625,9.78415828125Q15.7084115625,9.534108281249999,16.009981562500002,9.40904828125Z" fill="#FFFFFF" fill-opacity="1"/></g></g></svg>