<svg xmlns="http://www.w3.org/2000/svg" xmlns:xlink="http://www.w3.org/1999/xlink"   version="1.1" width="12"
     height="12" viewBox="0 0 12 12">
  <defs>
    <clipPath id="master_svg0_261_84765">
      <rect x="0" y="0" width="12" height="12" rx="0"/>
    </clipPath>
  </defs>
  <g clip-path="url(#master_svg0_261_84765)">
    <g>
      <path
        d="M8.267984238281251,7.974499375L9.32798423828125,6.913499375L7.73748423828125,5.322499375L9.50498423828125,3.554999375L8.44498423828125,2.494499375L6.67698423828125,4.261999375L5.08598423828125,2.670999375L4.024984238281251,3.731499375L8.267984238281251,7.974499375ZM7.56048423828125,8.681499375L3.31798423828125,4.438999375L1.90398423828125,5.852999375L6.14648423828125,10.095499375L7.56048423828125,8.681499375ZM6.67698423828125,2.847999375L8.09098423828125,1.433502375C8.28623423828125,1.238311675,8.60273423828125,1.238311675,8.79798423828125,1.433502375L10.56598423828125,3.201499375C10.76119423828125,3.396749375,10.76119423828125,3.713249375,10.56598423828125,3.908499375L9.15148423828125,5.322499375L10.38898423828125,6.559999375C10.58451423828125,6.755309375,10.58451423828125,7.072199375,10.38898423828125,7.267499375L6.49998423828125,11.156499375C6.30473423828125,11.351709375,5.98823423828125,11.351709375,5.79298423828125,11.156499375L0.84298723828125,6.206499375C0.6477965382812501,6.011249375,0.6477965382812501,5.694749375,0.84298723828125,5.499499375L4.73198423828125,1.610502375C4.92729423828125,1.414978375,5.24418423828125,1.414978375,5.43948423828125,1.610502375L6.67698423828125,2.847999375Z"
        fill-opacity="1"/>
    </g>
  </g>
</svg>
