<svg xmlns="http://www.w3.org/2000/svg" xmlns:xlink="http://www.w3.org/1999/xlink"   version="1.1" width="16"
     height="16" viewBox="0 0 16 16">
  <g>
    <g>
      <path
        d="M2.292893,8.43713C2.105349,8.24958,1.99999208388,7.99522,2,7.72999L2.000171029,2.0000474875L7.73002,2C7.99524,1.99999780196,8.249600000000001,2.105355,8.43714,2.292893L14.3493,8.205079999999999C14.7399,8.59561,14.7398,9.22877,14.3493,9.619299999999999L9.61929,14.3493C9.228760000000001,14.7398,8.595600000000001,14.7398,8.20507,14.3493L2.292893,8.43713ZM7.69424,7.69439C8.54259,6.84605,8.54259,5.470610000000001,7.69424,4.62227C6.8459,3.77393,5.470470000000001,3.77393,4.62212,4.62227C3.77378,5.470610000000001,3.77378,6.84605,4.62212,7.69439C5.470470000000001,8.542729999999999,6.8459,8.542729999999999,7.69424,7.69439ZM6.98714,6.98728C7.44495,6.52946,7.44495,5.78719,6.98714,5.3293800000000005C6.52932,4.871560000000001,5.78705,4.871560000000001,5.32923,5.3293800000000005C4.87141,5.78719,4.87141,6.52946,5.32923,6.98728C5.78705,7.4451,6.52932,7.4451,6.98714,6.98728Z"
        fill-rule="evenodd" fill-opacity="1"/>
    </g>
  </g>
</svg>
