<svg xmlns="http://www.w3.org/2000/svg" xmlns:xlink="http://www.w3.org/1999/xlink" fill="none" version="1.1" width="14" height="14" viewBox="0 0 14 14"><defs><clipPath id="master_svg0_365_47853"><rect x="0" y="0" width="14" height="14" rx="0"/></clipPath></defs><g clip-path="url(#master_svg0_365_47853)"><g><path d="M5.44266609375,6.70817390625L6.70849609375,6.70817390625C8.15824609375,6.70817390625,9.33349609375,7.88342390625,9.33349609375,9.33317390625L5.24957609375,9.33317390625L5.25016609375,9.91650390625L9.91682609375,9.91650390625L9.91682609375,9.33317390625C9.91499609375,8.71248390625,9.73565609375,8.10526390625,9.39999609375,7.58317390625L11.08349609375,7.58317390625C12.20889609375,7.58286390625,13.23409609375,8.23007390625,13.71779609375,9.24625390625C12.33819609375,11.06683390625,10.10466609375,12.24980390625,7.58349609375,12.24980390625C5.97291609375,12.24980390625,4.60849609375,11.90570390625,3.50016609375,11.30190390625L3.50016609375,5.87458390625C4.20985609375,5.97624390625,4.88002609375,6.26383390625,5.44266609375,6.70817390625ZM2.91682609375,11.08317390625C2.91682609375,11.40530390625,2.65566609375,11.66650390625,2.33349609375,11.66650390625L1.16682909375,11.66650390625C0.8446630937499999,11.66650390625,0.58349609375,11.40530390625,0.58349609375,11.08317390625L0.58349609375,5.83317390625C0.58349609375,5.51100390625,0.8446630937499999,5.24983390625,1.16682909375,5.24983390625L2.33349609375,5.24983390625C2.65566609375,5.24983390625,2.91682609375,5.51100390625,2.91682609375,5.83317390625L2.91682609375,11.08317390625ZM10.50016609375,2.91650390625C11.46669609375,2.91650390625,12.25019609375,3.70000390625,12.25019609375,4.66650390625C12.25019609375,5.63300390625,11.46669609375,6.41650390625,10.50016609375,6.41650390625C9.53366609375,6.41650390625,8.75016609375,5.63300390625,8.75016609375,4.66650390625C8.75016609375,3.70000390625,9.53366609375,2.91650390625,10.50016609375,2.91650390625ZM6.41682609375,1.16650390625C7.38332609375,1.16650390625,8.16682609375,1.95000590625,8.16682609375,2.91650390625C8.16682609375,3.88300390625,7.38332609375,4.66650390625,6.41682609375,4.66650390625C5.45032609375,4.66650390625,4.66682609375,3.88300390625,4.66682609375,2.91650390625C4.66682609375,1.95000590625,5.45032609375,1.16650390625,6.41682609375,1.16650390625Z" fill="#FFFFFF" fill-opacity="1"/></g></g></svg>