<svg xmlns="http://www.w3.org/2000/svg" xmlns:xlink="http://www.w3.org/1999/xlink" fill="none" version="1.1" width="20" height="20" viewBox="0 0 20 20"><defs><clipPath id="master_svg0_600_41336"><rect x="0" y="0" width="20" height="20" rx="0"/></clipPath></defs><g clip-path="url(#master_svg0_600_41336)"><g><path d="M6.66667,3.33317090625L17.5,3.33317090625L17.5,4.99983390625L6.66667,4.99983390625L6.66667,3.33317090625ZM2.5,2.91650390625L5,2.91650390625L5,5.41650390625L2.5,5.41650390625L2.5,2.91650390625ZM2.5,8.74983390625L5,8.74983390625L5,11.24983390625L2.5,11.24983390625L2.5,8.74983390625ZM2.5,14.58320390625L5,14.58320390625L5,17.08320390625L2.5,17.08320390625L2.5,14.58320390625ZM6.66667,9.16650390625L17.5,9.16650390625L17.5,10.83317390625L6.66667,10.83317390625L6.66667,9.16650390625ZM6.66667,14.99980390625L17.5,14.99980390625L17.5,16.66650390625L6.66667,16.66650390625L6.66667,14.99980390625Z" fill="#9AABC9" fill-opacity="1"/></g></g></svg>