<svg xmlns="http://www.w3.org/2000/svg" xmlns:xlink="http://www.w3.org/1999/xlink" fill="none" version="1.1" width="14" height="14" viewBox="0 0 14 14"><defs><clipPath id="master_svg0_119_44135"><rect x="0" y="0" width="14" height="14" rx="0"/></clipPath></defs><g clip-path="url(#master_svg0_119_44135)"><g transform="matrix(-1,0,0,1,25.2001953125,0)"><path d="M23.69919765625,2.80165234375L20.64728765625,1.41656244375C20.61389765625,1.39732503375,20.57382765625,1.39732503375,20.53375765625,1.40373751375L12.74701765625,2.78883234375C12.66020115625,2.80165234375,12.60009765625,2.87219234375,12.60009765625,2.96196234375L12.60009765625,3.93025234375C12.60009765625,4.02643234375,12.68023555625,4.10338234375,12.78040765625,4.10338234375L14.58350765625,4.10338234375L14.58350765625,5.41794234375L13.98915765625,5.41794234375C13.88898765625,5.41794234375,13.80884765625,5.49489234375,13.80884765625,5.59108234375L13.80884765625,6.79021234375C13.80884765625,7.22625234375,14.14275765625,7.58535234375,14.58350765625,7.64948234375L14.58350765625,8.29714234375C14.58350765625,8.39332234375,14.50337765625,8.47027234375,14.40319765625,8.47027234375L14.35645765625,8.47027234375C14.256277656249999,8.47027234375,14.17614765625,8.39332234375,14.17614765625,8.29714234375L14.17614765625,8.13682234375C14.17614765625,8.040642343750001,14.09600765625,7.96369234375,13.99583765625,7.96369234375C13.89565765625,7.96369234375,13.81552765625,8.040642343750001,13.81552765625,8.13682234375L13.81552765625,8.29714234375C13.81552765625,8.58570234375,14.06261765625,8.81655234375,14.36312765625,8.81655234375L14.40987765625,8.81655234375C14.71039765625,8.81655234375,14.95748765625,8.58570234375,14.95748765625,8.29714234375L14.95748765625,7.64948234375C15.39156765625,7.58535234375,15.73215765625,7.22625234375,15.73215765625,6.79021234375L15.73215765625,5.59108234375C15.73215765625,5.49489234375,15.652017656249999,5.41794234375,15.55184765625,5.41794234375L14.95748765625,5.41794234375L14.95748765625,4.10338234375L18.951027656249998,4.10338234375L18.951027656249998,4.43683234375C18.951027656249998,4.53302234375,19.03116765625,4.60997234375,19.13133765625,4.60997234375L19.13133765625,5.18709234375C19.03116765625,5.18709234375,18.951027656249998,5.26404234375,18.951027656249998,5.36023234375L18.951027656249998,6.00789234375C18.951027656249998,6.10407234375,19.03116765625,6.18102234375,19.13133765625,6.18102234375L19.43185765625,6.18102234375L19.43185765625,11.37512234375L18.256497656249998,11.37512234375C18.15632765625,11.37512234375,18.07618765625,11.45210234375,18.07618765625,11.54830234375L18.07618765625,12.42680234375C18.07618765625,12.52290234375,18.15632765625,12.59990234375,18.256497656249998,12.59990234375L20.53375765625,12.59990234375C20.633927656250002,12.59990234375,20.714067656250002,12.52290234375,20.714067656250002,12.42680234375L21.32177765625,12.42680234375C21.32177765625,12.52290234375,21.40191765625,12.59990234375,21.502087656249998,12.59990234375L21.93616765625,12.59990234375C22.036337656249998,12.59990234375,22.116477656249998,12.52290234375,22.116477656249998,12.42680234375L22.116477656249998,11.54830234375C22.116477656249998,11.45210234375,22.036337656249998,11.37512234375,21.93616765625,11.37512234375L20.76080765625,11.37512234375L20.76080765625,6.18102234375L21.06132765625,6.18102234375C21.16149765625,6.18102234375,21.24163765625,6.10407234375,21.24163765625,6.00789234375L21.24163765625,4.10338234375L21.989597656249998,4.10338234375L21.989597656249998,4.80875234375C21.989597656249998,4.90494234375,22.069727656250002,4.981892343749999,22.16990765625,4.981892343749999L23.61909765625,4.981892343749999C23.71919765625,4.981892343749999,23.79939765625,4.90494234375,23.79939765625,4.80875234375L23.79939765625,2.96196234375C23.80609765625,2.89143234375,23.76599765625,2.83372234375,23.69919765625,2.80165234375ZM14.74378765625,2.78883234375L20.39351765625,1.78207334375L20.39351765625,2.78883234375L14.74378765625,2.78883234375ZM20.754137656250002,2.78883234375L20.754137656250002,1.84619734375L22.817697656249997,2.78242234375L20.754137656250002,2.78242234375L20.754137656250002,2.78883234375Z" fill="#FFFFFF" fill-opacity="1"/></g></g></svg>