<svg xmlns="http://www.w3.org/2000/svg" xmlns:xlink="http://www.w3.org/1999/xlink" fill="none" version="1.1" width="20" height="20" viewBox="0 0 20 20"><g><g><path d="M1.873779296875,4.998626708984375C1.873779296875,4.3082707089843755,2.433423296875,3.748626708984375,3.123779296875,3.748626708984375C3.123779296875,3.748626708984375,16.873779296875,3.748626708984375,16.873779296875,3.748626708984375C17.564179296875,3.748626708984375,18.123779296875,4.3082707089843755,18.123779296875,4.998626708984375C18.123779296875,4.998626708984375,18.123779296875,14.998626708984375,18.123779296875,14.998626708984375C18.123779296875,15.689026708984375,17.564179296875,16.248626708984375,16.873779296875,16.248626708984375C16.873779296875,16.248626708984375,3.123779296875,16.248626708984375,3.123779296875,16.248626708984375C2.433423296875,16.248626708984375,1.873779296875,15.689026708984375,1.873779296875,14.998626708984375C1.873779296875,14.998626708984375,1.873779296875,4.998626708984375,1.873779296875,4.998626708984375ZM16.372079296875,4.998626708984375C16.372079296875,4.998626708984375,3.6255092968750002,4.998626708984375,3.6255092968750002,4.998626708984375C3.6255092968750002,4.998626708984375,9.998779296875,9.247466708984376,9.998779296875,9.247466708984376C9.998779296875,9.247466708984376,16.372079296875,4.998626708984375,16.372079296875,4.998626708984375ZM3.123779296875,6.166446708984375C3.123779296875,6.166446708984375,3.123779296875,14.998626708984375,3.123779296875,14.998626708984375C3.123779296875,14.998626708984375,16.873779296875,14.998626708984375,16.873779296875,14.998626708984375C16.873779296875,14.998626708984375,16.873779296875,6.166446708984375,16.873779296875,6.166446708984375C16.873779296875,6.166446708984375,9.998779296875,10.749786708984374,9.998779296875,10.749786708984374C9.998779296875,10.749786708984374,3.123779296875,6.166446708984375,3.123779296875,6.166446708984375Z" fill="#FFFFFF" fill-opacity="1"/></g></g></svg>