<svg xmlns="http://www.w3.org/2000/svg" xmlns:xlink="http://www.w3.org/1999/xlink" version="1.1" width="18" height="18"
  viewBox="0 0 18 18">
  <defs>
    <clipPath id="master_svg0_73_23078">
      <rect x="0" y="0" width="18" height="18" rx="0" />
    </clipPath>
  </defs>
  <g clip-path="url(#master_svg0_73_23078)">
    <g>
      <path
        d="M12.76549375,13.930953515625C12.50949375,14.570353515625,12.63749375,15.356053515625,13.15439375,15.794953515625C13.67129375,16.239253515625002,14.35889375,16.239253515625002,14.87109375,15.843653515625C15.38799375,15.399353515625,15.55869375,14.667853515625,15.34529375,14.028553515625C15.08929375,13.389153515625,14.48699375,12.999053515625,13.84199375,13.096553515625C13.58599375,13.145253515625,13.32509375,13.242853515625,13.11169375,13.486653515625L11.47564375,12.067053515625C11.39027375,12.018253515625,11.30491375,11.969453515625,11.17687375,12.018253515625C11.09151375,12.067053515625,11.00615375,12.164553515625,11.00615375,12.262053515625C11.00615375,12.359653515625,11.04883375,12.505953515625,11.13419375,12.554653515625L12.76549375,13.930953515625ZM6.44882375,12.067053515625C6.32078375,11.969453515625,6.15006375,11.969453515625,6.05995375,12.067053515625L4.30057375,13.979753515625C3.74098375,13.589653515625,3.05335375,13.638353515625,2.58386875,14.126053515625C2.10964075,14.619153515625,1.98159875,15.404753515625,2.28510475,15.989953515625C2.58386875,16.629353515625,3.22881375,16.921953515625,3.87376375,16.775653515625002C4.47603375,16.580553515625,4.9502637499999995,15.989953515625,4.9502637499999995,15.253053515625C4.9502637499999995,14.960453515625,4.86490375,14.662453515625,4.7368637499999995,14.418653515625L6.50099375,12.505953515625C6.57686375,12.359653515625,6.57686375,12.164553515625,6.44882375,12.067053515625ZM7.30717375,2.687743515625C7.30717375,3.424653515625,7.78140375,4.064023515625,8.42635375,4.210323515624999L8.42635375,5.781663515625C8.42635375,5.879193515625,8.469033750000001,6.025493515625,8.55439375,6.074263515625C8.63975375,6.123023515625,8.76779375,6.123023515625,8.85316375,6.074263515625C8.93852375,6.025493515625,8.981203749999999,5.927963515625,8.981203749999999,5.781663515625L8.981203749999999,4.210323515624999C9.71625375,4.064023515625,10.18574375,3.278353515625,10.100383749999999,2.492683515625C10.01501375,1.707010515625,9.37006375,1.116402815625,8.59707375,1.165168765625C7.86676375,1.165168765625,7.30717375,1.853308515625,7.30717375,2.687743515625ZM13.06909375,8.284973515625001L11.73646375,8.826813515625C11.60842375,8.875583515625,11.52306375,9.070643515625001,11.56574375,9.216943515625C11.60842375,9.363243515625,11.77914375,9.460773515625,11.95461375,9.412003515625L13.28719375,8.870163515625C13.67609375,9.558303515625,14.44909375,9.802133515625,15.09399375,9.460773515625C15.73899375,9.119413515625,16.037693750000003,8.284973515625001,15.82429375,7.548073515625C15.56819375,6.811163515625,14.88059375,6.372273515625,14.19299375,6.567333515625C13.41049375,6.713633515625,12.97889375,7.450543515625,13.06909375,8.284973515625001ZM4.556653750000001,3.966493515625C4.08242375,3.522183515625,3.39479375,3.473413515625,2.83995175,3.868963515625C2.32304275,4.259083515625,2.06696025,4.995993515625,2.28036275,5.635363515625C2.49376475,6.323503515625,3.05335375,6.713633515625,3.69830375,6.664863515625C3.95438375,6.664863515625,4.21521375,6.518573515625,4.42861375,6.372273515625L5.50511375,7.401773515625C5.59047375,7.499303515625,5.67583375,7.499303515625,5.80387375,7.499303515625C5.88923375,7.450543515625,5.97459375,7.353003515625,6.01727375,7.255473515625C6.01727375,7.157943515625,5.97459375,7.011643515625,5.88923375,6.962883515625L4.81274375,5.933383515625C4.94078375,5.689553515625,5.02614375,5.391543515625,4.98346375,5.050183515625C5.03088375,4.605863515625,4.86016375,4.210323515624999,4.556653750000001,3.966493515625Z"
        fill-opacity="1" />
    </g>
    <g>
      <path
        d="M8.3419796875,13.39430765625C6.3217696875,13.39430765625,4.6904296875,11.627907656249999,4.6904296875,9.46595765625C4.6904296875,7.3040076562500005,6.3217696875,5.53759765625,8.3419796875,5.53759765625C10.362189687499999,5.53759765625,11.9935396875,7.3040076562500005,11.9935396875,9.46595765625C11.9935396875,11.627907656249999,10.362189687499999,13.39430765625,8.3419796875,13.39430765625Z"
        fill-opacity="1" />
    </g>
    <g>
      <path
        d="M8.3419375,5.53759765625C6.5778075000000005,5.53759765625,5.1171875,7.20646765625,5.1171875,9.22212765625C5.1171875,11.23777765625,6.5778075000000005,12.90664765625,8.3419375,12.90664765625C10.1060675,12.90664765625,11.5666875,11.23777765625,11.5666875,9.22212765625C11.5666875,8.24138765625,11.2252375,7.30941765625,10.6229675,6.62127765625C10.015957499999999,5.92772465625,9.2002875,5.537598192692,8.3419375,5.53759765625Z"
        fill-opacity="1" />
    </g>
    <g>
      <path
        d="M7.265625,8.4853977734375C7.265625,9.0760077734375,7.564388,9.6124277734375,8.038616,9.8616777734375C8.512845,10.1055077734375,9.067695,9.9592077734375,9.456555,9.569077773437499C9.845425,9.124767773437501,9.930785,8.4908177734375,9.755325,7.9489707734375C9.541915,7.4071287734375,9.067695,7.0170026421375,8.550785,7.0170021057375C7.867895,7.0115835034375,7.265625469501,7.6509577734375,7.265625,8.4853977734375Z"
        fill-opacity="1" />
    </g>
    <g>
      <path
        d="M10.277369375,10.49521921875C10.106649375,9.70954921875,9.461689374999999,9.11893921875,8.688699374999999,8.97263921875L8.432619375,9.41694921875L8.176539375,9.41694921875L7.920459375,8.97263921875C7.147459375,9.11893921875,6.545189375,9.75830921875,6.417149375,10.59274921875C6.417149375,10.69027921875,6.417149375,10.93410921875,6.758599375,10.93410921875L8.005819375,10.93410921875L8.219219375,9.411529218750001L8.389939375,9.411529218750001L8.603339375000001,10.93410921875L9.935919375000001,10.93410921875C10.277369375,10.93952921875,10.277369375,10.64151921875,10.277369375,10.49521921875ZM2.756113375,5.73242921875C2.457350275,5.34229921875,2.457350275,4.70291921875,2.798794375,4.35614921875C3.097558375,4.0635492187499995,3.529105375,4.01477921875,3.8278693749999997,4.25860921875C4.169309375,4.50243921875,4.302099375,4.94674921875,4.169309375,5.38564921875C4.036529375,5.82453921875,3.6950893750000002,6.07378921875,3.310960375,6.07378921875C3.140238375,6.03043921875,2.926835375,5.92748921875,2.756113375,5.73242921875ZM2.756113375,15.55064921875C2.457350275,15.16044921875,2.457350275,14.52114921875,2.798794375,14.17434921875C3.140238375,13.83294921875,3.699829375,13.83294921875,4.003329375,14.22304921875C4.2167393749999995,14.51564921875,4.302099375,14.95994921875,4.131369375,15.30134921875C4.003329375,15.64274921875,3.657149375,15.89194921875,3.315702375,15.89194921875C3.140238375,15.84864921875,2.926835375,15.75104921875,2.756113375,15.55064921875ZM13.497409375,15.06294921875C13.198609375,14.67284921875,13.198609375,14.03344921875,13.540009375,13.68664921875C13.838809375,13.39404921875,14.270409375,13.34534921875,14.569109375,13.58914921875C14.910609375,13.83294921875,15.043309375,14.27724921875,14.910609375,14.71614921875C14.782509375,15.16044921875,14.436309375,15.40434921875,14.052209375,15.40434921875C13.886209375,15.35554921875,13.668109375,15.25804921875,13.497409375,15.06294921875ZM14.355709375,8.68004921875C14.057009375,8.28991921875,14.057009375,7.65054921875,14.398409375,7.30376921875C14.697209375,7.01116921875,15.128709375,6.96240921875,15.427509375,7.20623921875C15.768909375,7.45005921875,15.901709375,7.89436921875,15.768909375,8.33326921875C15.640909375,8.777579218749999,15.294709375,9.02140921875,14.910609375,9.02140921875C14.744609375,8.97263921875,14.531209375,8.87510921875,14.355709375,8.68004921875ZM7.910969375,3.27787921875C7.612209375,2.88774921875,7.612209375,2.24837821875,7.953649375,1.90159921875C8.252409375,1.60900431875,8.683959375,1.56023851875,8.982719375,1.80406721875C9.324169375,2.04789621875,9.456949375,2.49220721875,9.324169375,2.93109921875C9.196129375,3.3754092187499998,8.849939375,3.6192392187499998,8.465819374999999,3.6192392187499998C8.299839375000001,3.57046921875,8.081689375,3.4729392187499997,7.910969375,3.27787921875Z"
        fill-opacity="1" />
    </g>
  </g>
</svg>
