<svg xmlns="http://www.w3.org/2000/svg" xmlns:xlink="http://www.w3.org/1999/xlink" version="1.1" width="18" height="18"
  viewBox="0 0 18 18">
  <defs>
    <clipPath id="master_svg0_73_23105">
      <rect x="0" y="0" width="18" height="18" rx="0" />
    </clipPath>
  </defs>
  <g clip-path="url(#master_svg0_73_23105)">
    <g>
      <path
        d="M9.000606874999999,0.625L1.748046875,4.81228L1.748046875,13.187L9.000606874999999,17.3745L16.253346875,13.187L16.253346875,4.81228L9.000606874999999,0.625ZM15.170346875,12.4405L9.004116875000001,16.0006L2.838066875,12.4405L2.838066875,5.32029L9.004116875000001,1.76037L15.170346875,5.32029L15.170346875,12.4405Z"
        fill-opacity="1" />
    </g>
    <g>
      <path
        d="M8.4794921875,0.81005859375L9.5215221875,0.81005859375L9.5215221875,17.63965859375L8.479492723942,17.63965859375L8.4794921875,0.81005859375Z"
        fill-opacity="1" />
    </g>
    <g>
      <path
        d="M1.4560546875,12.7434165625L16.0221546875,4.3134765625L16.5440546875,5.2153395625L1.9780016875,13.6452965625L1.4560546875,12.7434165625Z"
        fill-opacity="1" />
    </g>
    <g>
      <path
        d="M1.4560546875,5.214381L1.9780016875,4.3125L16.5440546875,12.74248L16.0221546875,13.64436L1.4560546875,5.214381Z"
        fill-opacity="1" />
    </g>
    <g>
      <path
        d="M7.59218375,8.99999625C7.59218375,9.77712625,8.22218375,10.40715625,8.99931375,10.40715625C9.77644375,10.40715625,10.40644375,9.77712625,10.40644375,8.99999625C10.40644375,8.22286625,9.77644375,7.59286625,8.99931375,7.59286625C8.22218375,7.59286625,7.59218375,8.22286625,7.59218375,8.99999625ZM14.48629375,12.82885625C14.48629375,13.53565625,15.05939375,14.10895625,15.76639375,14.10895625C16.47339375,14.10895625,17.04639375,13.53585625,17.04639375,12.82885625C17.04639375,12.12185625,16.47339375,11.54885625,15.76639375,11.54885625C15.05959375,11.54885625,14.48629375,12.12185625,14.48629375,12.82885625ZM14.48629375,5.07691625C14.48629375,5.78372625,15.05939375,6.35695625,15.76639375,6.35695625C16.47339375,6.35695625,17.04639375,5.78390625,17.04639375,5.07691625C17.04639375,4.36992625,16.47339375,3.79687625,15.76639375,3.79687625C15.05959375,3.79687625,14.48629375,4.36992625,14.48629375,5.07691625ZM0.93359375,12.82885625C0.93359375,13.53565625,1.5066407499999999,14.10895625,2.21363375,14.10895625C2.92062375,14.10895625,3.49367375,13.53585625,3.49367375,12.82885625C3.49367375,12.12185625,2.92062375,11.54885625,2.21363375,11.54885625C1.50681675,11.54885625,0.93359388411,12.12185625,0.93359375,12.82885625ZM0.93359375,5.07691625C0.93359375,5.78372625,1.5066407499999999,6.35695625,2.21363375,6.35695625C2.92062375,6.35695625,3.49367375,5.78390625,3.49367375,5.07691625C3.49367375,4.36992625,2.92062375,3.79687625,2.21363375,3.79687625C1.50681675,3.79687625,0.93359388411,4.36992625,0.93359375,5.07691625ZM7.71875375,1.31519625C7.71875375,2.02201625,8.29179375,2.59523625,8.99879375,2.59523625C9.70578375,2.59523625,10.27882375,2.02218625,10.27882375,1.31519625C10.27865375,0.60820325,9.70578375,0.03515625,8.99879375,0.03515625C8.29197375,0.03515625,7.71875375,0.60820325,7.71875375,1.31519625ZM7.71875375,16.71365625C7.71875375,17.42045625,8.29179375,17.99365625,8.99879375,17.99365625C9.70578375,17.99365625,10.27882375,17.42065625,10.27882375,16.71365625C10.27882375,16.00665625,9.70578375,15.43355625,8.99879375,15.43355625C8.29197375,15.43355625,7.71875375,16.00665625,7.71875375,16.71365625Z"
        fill-opacity="1" />
    </g>
  </g>
</svg>
