<svg xmlns="http://www.w3.org/2000/svg" xmlns:xlink="http://www.w3.org/1999/xlink" fill="none" version="1.1" width="14" height="14" viewBox="0 0 14 14"><defs><clipPath id="master_svg0_1_002103"><rect x="0" y="0" width="14" height="14" rx="0"/></clipPath></defs><g clip-path="url(#master_svg0_1_002103)"><g><path d="M6.9996778125,5.833251953125C7.3218378125,5.833251953125,7.5830078125,6.094421953125,7.5830078125,6.416581953125L7.5830078125,7.874921953125L11.9580078125,7.874921953125C12.2802078125,7.874921953125,12.5413078125,8.136081953125,12.5413078125,8.458251953125L12.5413078125,11.958251953125C12.5413078125,12.280451953125,12.2802078125,12.541551953125,11.9580078125,12.541551953125L2.0413408125,12.541551953125C1.7191748125,12.541551953125,1.4580078125,12.280451953125,1.4580078125,11.958251953125L1.4580078125,8.458251953125C1.4580078125,8.136081953125,1.7191748125,7.874921953125,2.0413408125,7.874921953125L6.4163378125,7.874921953125L6.4163378125,6.416581953125C6.4163378125,6.094421953125,6.6775078125,5.833251953125,6.9996778125,5.833251953125ZM3.2080078125,9.624921953125C2.8858378125,9.624921953125,2.6246778125,9.886081953125,2.6246778125,10.208251953125C2.6246778125,10.530421953125,2.8858378125,10.791581953125,3.2080078125,10.791581953125C3.5301778125,10.791581953125,3.7913378125,10.530421953125,3.7913378125,10.208251953125C3.7913378125,9.886081953125,3.5301778125,9.624921953125,3.2080078125,9.624921953125ZM4.9580078125,9.624921953125C4.6358378125,9.624921953125,4.3746778125,9.886081953125,4.3746778125,10.208251953125C4.3746778125,10.530421953125,4.6358378125,10.791581953125,4.9580078125,10.791581953125C5.2801778125,10.791581953125,5.5413378125,10.530421953125,5.5413378125,10.208251953125C5.5413378125,9.886081953125,5.2801778125,9.624921953125,4.9580078125,9.624921953125ZM6.9996778125,3.152251953125C8.3261778125,3.152251953125,9.4018378125,4.235501953125,9.4018378125,5.571921953125C9.4028078125,5.876361953125,9.1567878125,6.123951953125,8.8523378125,6.124921953125C8.7065078125,6.124921953125,8.567087812499999,6.066581953125,8.4644278125,5.962751953125C8.3613378125,5.858791953125,8.3034678125,5.718321953125,8.3034278125,5.571921953125C8.2973578125,4.855351953125,7.7162578125,4.276851953125,6.9996778125,4.2740019531249995C6.2856778125,4.2740019531249995,5.7046778125,4.8520819531249995,5.6959278125,5.571921953125C5.6911578125,5.872031953125,5.4471578125,6.113181953125,5.1470078125,6.114421953125C4.8466278124999995,6.113501953125,4.602277812500001,5.872261953125,4.5975078125,5.571921953125C4.5975078125,4.235501953125,5.6731778125,3.152251953125,6.9996778125,3.152251953125ZM6.9996778125,1.458251953125C9.2548378125,1.458251953125,11.0830078125,3.299831953125,11.0830078125,5.571921953125C11.0839778125,5.876141953125,10.8383078125,6.123631953125,10.5340878125,6.124921953125C10.3882578125,6.124921953125,10.2482578125,6.066581953125,10.1455878125,5.963331953125C10.0425778125,5.859131953125,9.9849178125,5.718441953125,9.9851778125,5.571921953125C9.9851778125,3.910581953125,8.648757812500001,2.564251953125,6.9996678125,2.564251953125C5.3511778125,2.564251953125,4.0141778125,3.910581953125,4.0141778125,5.571921953125C4.009417812500001,5.871811953125,3.7657678125,6.112871953125,3.4658378125,6.114421953125C3.1654578124999997,6.113501953125,2.9211078125,5.872261953125,2.9163378125,5.571921953125C2.9163378125,3.299831953125,4.7445078125,1.458251953125,6.9996778125,1.458251953125Z" fill="#FFFFFF" fill-opacity="1"/></g></g></svg>