<svg xmlns="http://www.w3.org/2000/svg" xmlns:xlink="http://www.w3.org/1999/xlink" version="1.1" width="14" height="14"
  viewBox="0 0 14 14">
  <defs>
    <clipPath id="master_svg0_1_030994">
      <rect x="0" y="0" width="14" height="14" rx="0" />
    </clipPath>
  </defs>
  <g clip-path="url(#master_svg0_1_030994)">
    <g>
      <path
        d="M6.342261875,5.51391796875C9.354361875,5.51391796875,11.795371875,4.42787796875,11.795371875,3.08656796875C11.795371875,1.74544796875,9.354361875,0.65966796875,6.342261875,0.65966796875C3.329181875,0.65966796875,0.888671875,1.74544796875,0.888671875,3.08656796875C0.888672605157,4.42787796875,3.329151875,5.51391796875,6.342261875,5.51391796875ZM6.342261875,8.03556796875C6.422031875,8.03556796875,6.499951875,8.03184796875,6.579251875,8.030887968750001C7.094561875,6.91808796875,8.218151875,6.14466796875,9.524741875,6.14466796875C10.164451875,6.14466796875,10.758591875,6.33193796875,11.261671875,6.65107796875C11.600571875,6.33520796875,11.795371875,5.98226796875,11.795371875,5.60869796875L11.795371875,3.75299796875C11.795371875,5.09385796875,9.354361875,6.18034796875,6.342261875,6.18034796875C3.329181875,6.18034796875,0.888671875,5.09382796875,0.888671875,3.75299796875L0.888671875,5.60869796875C0.888672605157,6.95003796875,3.329151875,8.03556796875,6.342261875,8.03556796875ZM6.342261875,10.55774796875C6.393861875,10.55774796875,6.443621875,10.55489796875,6.494751875,10.55441796875C6.356311875,10.19310796875,6.277471875,9.80214796875,6.277471875,9.39238796875C6.277471875,9.15494796875,6.304231875,8.92450796875,6.352561875,8.70157796875C6.348331875,8.70157796875,6.345061875,8.70157796875,6.342261875,8.70157796875C3.329181875,8.70157796875,0.888672292233,7.61598796875,0.888672292233,6.27464796875L0.888672292233,8.13031796875C0.888672605157,9.47168796875,3.329151875,10.55774796875,6.342261875,10.55774796875ZM8.622691875000001,12.50826796875C7.885371875,12.29566796875,7.255511875,11.83246796875,6.835031875,11.21296796875C6.672181875,11.21906796875,6.508351875,11.22326796875,6.342261875,11.22326796875C3.329181875,11.22326796875,0.888672292233,10.13769796875,0.888672292233,8.79638796875L0.888672292233,10.65252796875C0.888672292233,11.99346796875,3.329151875,13.07986796875,6.342261875,13.07986796875C7.183711875,13.07986796875,7.976931875,12.99166796875,8.687961875,12.83966796875C8.643331875000001,12.74856796875,8.618491875,12.64866796875,8.618491875,12.54386796875C8.618491875,12.53176796875,8.622211875,12.52046796875,8.622691875000001,12.50826796875ZM13.337571875,12.52516796875L11.646571875,10.83466796875C11.630571875,10.81866796875,11.613671875,10.80466796875,11.595871875,10.79146796875C11.867571875,10.37703796875,12.025771875,9.88143796875,12.025771875,9.34968796875C12.025771875,7.89480796875,10.842591875,6.71113796875,9.387231875,6.71113796875C7.932801875,6.71113796875,6.749161875,7.89480796875,6.749161875,9.34968796875C6.749161875,10.80466796875,7.932801875,11.98826796875,9.387231875,11.98826796875C9.864071875,11.98826796875,10.310421875,11.86106796875,10.696651875,11.63996796875C10.713561875,11.66906796875,10.734201875,11.69676796875,10.759061875,11.72166796875L12.450471875,13.41316796875C12.643871875,13.60646796875,12.999171875,13.56426796875,13.244671875,13.31916796875C13.489571875,13.07426796875,13.531371875,12.71896796875,13.337571875,12.52516796875ZM7.484571875,9.34968796875C7.484571875,8.300277968749999,8.338271875,7.44655796875,9.387231875,7.44655796875C10.436641875,7.44655796875,11.290771875,8.30024796875,11.290771875,9.34968796875C11.290771875,10.39865796875,10.436641875,11.25236796875,9.387231875,11.25236796875C8.338271875,11.25236796875,7.484571875,10.39865796875,7.484571875,9.34968796875Z"
        fill-opacity="1" />
    </g>
  </g>
</svg>
