<svg xmlns="http://www.w3.org/2000/svg" xmlns:xlink="http://www.w3.org/1999/xlink" fill="none" version="1.1" width="14" height="14" viewBox="0 0 14 14"><defs><clipPath id="master_svg0_234_40258"><rect x="0" y="0" width="14" height="14" rx="0"/></clipPath></defs><g clip-path="url(#master_svg0_234_40258)"><g><path d="M2.54997,1L2.19998,3.83928L1.399993,3.83929L1.049999,1L2.54997,1ZM9.55006,1C9.70005,1,9.80005,1.107143,9.85005,1.267857L13,13L11.6,13Q11.45,12.7321,11.3,12.3036L11.4,11.9821L11.4,11.9286L10.95003,11.2321L10.65004,10.91071L10.30004,10.75L10.15005,10.53571L9.95005,10.21428L9.75005,10.21428L9.60006,9.57143L9.30006,8.76785C9.05007,8.392859999999999,9.05007,8.339279999999999,9.00007,8.339279999999999L8.95007,8.28571C8.90007,8.232140000000001,8.850069999999999,8.17857,8.80007,8.17857C8.750070000000001,8.125,8.70007,7.96428,8.70007,7.85714L8.600069999999999,7.53571L8.300080000000001,7.42857L7.80009,7.16071L7.65009,7.05357L7.45009,7.05357L7.15009,6.89286L6.8501,6.83928L6.50011,6.89286L6.40011,6.83928L6.30011,6.73214L5.95011,6.46428L5.55012,6.35714L5.15013,6.35714L5.05013,6.25L5.00013,6.08929L4.75013,5.60714L4.40014,5.39286L4.30014,5.44643L4.20014,5.23214L3.90015,5.01786L3.65015,4.9642800000000005L3.35016,4.9642800000000005L3.25016,4.857139999999999L3.20016,4.803570000000001L4.15014,1.267857C4.15014,1.107143,4.30014,1,4.45014,1L9.55006,1ZM7.0001,3.625C7.1501,3.625,7.25009,3.51786,7.25009,3.35714L7.25009,2.0178599999999998C7.25009,1.857143,7.1501,1.75,7.0001,1.75C6.8501,1.75,6.7501,1.857143,6.7501,2.0178599999999998L6.7501,3.35714C6.7501,3.51786,6.8501,3.625,7.0001,3.625ZM2.2999799999999997,5.01786L1.299995,5.01786L1.299995,4.2142800000000005L2.2999799999999997,4.2142800000000005L2.2999799999999997,5.01786ZM7.0001,6.46428C7.1501,6.46428,7.25009,6.35714,7.25009,6.19643L7.25009,4.857139999999999C7.25009,4.696429999999999,7.1501,4.5892800000000005,7.0001,4.5892800000000005C6.8501,4.5892800000000005,6.7501,4.696429999999999,6.7501,4.857139999999999L6.7501,6.19643C6.7501,6.35714,6.8501,6.46428,7.0001,6.46428ZM10.59984,12.6786L10.54984,12.8929L10.54984,13L1,13L2.9999700000000002,5.5L3.14997,5.60714L3.34996,5.66072L3.69996,5.60714L3.89995,5.875L4.199949999999999,6.08929L4.34995,6.35714L4.549939999999999,6.78572L4.84994,7.05357L5.39993,7.05357L5.84992,7.16071L6.09992,7.48214L6.39991,7.80357L6.74991,7.69643L6.74991,9.03572C6.74991,9.19643,6.8499,9.30357,6.9999,9.30357C7.1499,9.30357,7.2499,9.19643,7.2499,9.03572L7.2499,7.80357L7.74989,8.125L7.84989,8.285720000000001L8.099879999999999,8.66071L8.499880000000001,9.08929L8.64987,9.625L9.14987,10.80357L9.39986,10.96428L9.49986,11.2321L10.14985,11.6071L10.39985,11.9821L10.64984,12.4643L10.59984,12.6786ZM6.9999,12.3036C7.1499,12.3036,7.2499,12.1964,7.2499,12.0357L7.2499,10.69643C7.2499,10.53571,7.1499,10.42857,6.9999,10.42857C6.84991,10.42857,6.74991,10.53571,6.74991,10.69643L6.74991,12.0357C6.74991,12.1964,6.84991,12.3036,6.9999,12.3036Z" fill-rule="evenodd" fill="#FFFFFF" fill-opacity="1"/></g></g></svg>