<svg xmlns="http://www.w3.org/2000/svg" xmlns:xlink="http://www.w3.org/1999/xlink" fill="none" version="1.1" width="14" height="14" viewBox="0 0 14 14"><defs><clipPath id="master_svg0_234_050360"><rect x="0" y="0" width="14" height="14" rx="0"/></clipPath></defs><g clip-path="url(#master_svg0_234_050360)"><g><path d="M12.2,7.75L11.4,7.75L11.4,2.5C11.4,1.675,10.68,1,9.8,1L4.2,1C3.32,1,2.6,1.675,2.6,2.5L2.6,7.75L1.8,7.75C1.32,7.75,1,8.05,1,8.5L1,12.25C1,12.7,1.32,13,1.8,13L12.2,13C12.68,13,13,12.7,13,12.25L13,8.5C13,8.05,12.68,7.75,12.2,7.75ZM5,2.5L9,2.5L9,3.25L5,3.25L5,2.5ZM5,4.75L9,4.75L9,5.5L5,5.5L5,4.75ZM9,10.75L5,10.75L5,10L9,10L9,10.75ZM3.4,7.75L3.4,7L10.6,7L10.6,7.75L3.4,7.75Z" fill="#FFFFFF" fill-opacity="1"/></g></g></svg>