<svg xmlns="http://www.w3.org/2000/svg" xmlns:xlink="http://www.w3.org/1999/xlink" fill="none" version="1.1" width="14" height="14" viewBox="0 0 14 14"><defs><clipPath id="master_svg0_330_37608"><rect x="0" y="0" width="14" height="14" rx="0"/></clipPath></defs><g clip-path="url(#master_svg0_330_37608)"><g><path d="M8.35059,5L5.87882,10.820789999999999L3.99265,6.7518899999999995L3.05118,7.489879999999999L1,7.489879999999999L1,11.003630000000001C1,11.738,1.579396,12.33333,2.29412,12.33333L10.70588,12.33333C11.4206,12.33333,12,11.738,12,11.003630000000001L12,7.32366L9.13029,7.32366L8.35059,5Z" fill="#FFFFFF" fill-opacity="1"/></g><g><path d="M10.70588,1L2.29412,1C1.579396,0.9999999143578,1,1.5823939999999999,1,2.3008100000000002L1,6.38862L2.73735,6.38862L4.355,5.15935L5.85294,8.33333L8.44118,2.3203300000000002L9.78059,6.22276L12,6.22276L12,2.3008100000000002C12,1.5823939999999999,11.4206,1,10.70588,1Z" fill="#FFFFFF" fill-opacity="1"/></g></g></svg>