<svg xmlns="http://www.w3.org/2000/svg" xmlns:xlink="http://www.w3.org/1999/xlink" version="1.1" width="20"
     height="20" viewBox="0 0 20 20">
  <defs>
    <clipPath id="master_svg0_1_003243">
      <rect x="0" y="0" width="20" height="20" rx="0"/>
    </clipPath>
  </defs>
  <g clip-path="url(#master_svg0_1_003243)">
    <g>
      <path
        d="M10.50833,14.8083015625L11.18333,13.9666015625C10.74167,13.4333015625,10.475,12.7499015625,10.475,12.0166015625C10.475,10.3332715625,11.85,8.9582715625,13.5417,8.9582715625C14.45,8.9582715625,15.275,9.3582715625,15.8333,9.9832715625L15.8333,2.6416015625C15.8333,2.0916015625,15.3833,1.6416015625,14.8333,1.6416015625L4,1.6416015625C3.45,1.6416015625,3,2.0916015625,3,2.6416015625L3,15.6416015625C3,16.1916015625,3.45,16.6416015625,4,16.6416015625L8.80833,16.6416015625C9.016670000000001,15.7666015625,9.66667,15.0666015625,10.50833,14.8083015625ZM6.591670000000001,3.9999315625L12.25833,3.9999315625C12.625,3.9999315625,12.925,4.299931562499999,12.925,4.6666015625C12.925,5.0332715624999995,12.625,5.3332715625,12.25833,5.3332715625L6.591670000000001,5.3332715625C6.225,5.3332715625,5.925,5.0332715624999995,5.925,4.6666015625C5.925,4.299931562499999,6.216670000000001,3.9999315625,6.591670000000001,3.9999315625ZM6.591670000000001,6.9999315625L12.25833,6.9999315625C12.625,6.9999315625,12.925,7.2999315625,12.925,7.6666015625C12.925,8.033271562500001,12.625,8.3332715625,12.25833,8.3332715625L6.591670000000001,8.3332715625C6.225,8.3332715625,5.925,8.033271562500001,5.925,7.6666015625C5.925,7.2999315625,6.216670000000001,6.9999315625,6.591670000000001,6.9999315625ZM5.925,10.6666015625C5.925,10.2999315625,6.225,9.9999315625,6.591670000000001,9.9999315625L8.925,9.9999315625C9.29167,9.9999315625,9.59167,10.2999315625,9.59167,10.6666015625C9.59167,11.0332715625,9.29167,11.3332715625,8.925,11.3332715625L6.591670000000001,11.3332715625C6.216670000000001,11.3332715625,5.925,11.0332715625,5.925,10.6666015625Z"
         fill-opacity="1"/>
    </g>
    <g>
      <path
        d="M15.84036125,18.3336621875L11.23203125,18.3336621875C10.59869725,18.3336621875,10.08203125,17.8169921875,10.08203125,17.1836621875C10.08203125,16.5503221875,10.59869725,16.0336621875,11.23203125,16.0336621875L13.12370125,13.6836621875C12.36536125,13.5003221875,11.80703125,12.8253221875,11.80703125,12.0169921875C11.80703125,11.0669921875,12.58203125,10.2919921875,13.54036125,10.2919921875C14.49870125,10.2919921875,15.27370125,11.0669921875,15.27370125,12.0169921875C15.27370125,12.8253221875,14.71536125,13.5003221875,13.95703125,13.6836621875L15.848701250000001,16.0336621875C16.48203125,16.0336621875,16.99870125,16.5503221875,16.99870125,17.1836621875C16.99870125,17.8169921875,16.48203125,18.3336621875,15.84036125,18.3336621875Z"
         fill-opacity="1"/>
    </g>
  </g>
</svg>
