<svg xmlns="http://www.w3.org/2000/svg" xmlns:xlink="http://www.w3.org/1999/xlink" version="1.1" width="20"
     height="20" viewBox="0 0 20 20">
  <defs>
    <clipPath id="master_svg0_1_003255">
      <rect x="0" y="0" width="20" height="20" rx="0"/>
    </clipPath>
  </defs>
  <g clip-path="url(#master_svg0_1_003255)">
    <g>
      <path
        d="M11.25,16.25L11.25,17.5L7.5,15.625L11.25,13.75L11.25,15L15,15L15,11.25L13.75,11.25L15.625,7.5L17.5,11.25L16.25,11.25L16.25,16.25L11.25,16.25ZM2.5,2.5L6.25,2.5L6.25,6.25L2.5,6.25L2.5,2.5ZM2.5,7.5L6.25,7.5L6.25,17.5L2.5,17.5L2.5,7.5ZM7.5,2.5L17.5,2.5L17.5,6.25L7.5,6.25L7.5,2.5Z"
          fill-opacity="0.8999999761581421"/>
    </g>
  </g>
</svg>
