<svg xmlns="http://www.w3.org/2000/svg" xmlns:xlink="http://www.w3.org/1999/xlink" fill="none" version="1.1" width="14" height="14" viewBox="0 0 14 14"><defs><clipPath id="master_svg0_234_046078"><rect x="0" y="0" width="14" height="14" rx="0"/></clipPath></defs><g clip-path="url(#master_svg0_234_046078)"><g><path d="M10.7884,1.163111L9.7652,1.163111L11.1681,5.04344L11.2402,5.03772C11.7616,4.99604,12.2864,5.01932,12.8016,5.10697L13,5.14074L10.7884,1.163111ZM9.08343,1L8.07509,1L7.92968,2.83143L9.22944,2.83143L9.08343,1ZM7.85757,3.45468L7.71156,5.39771L9.40405,5.39771L9.25805,3.45468L7.85757,3.45468ZM0,12L3.20501,12L7.07867,1.164256L6.05483,1.164256L0,12Z" fill="#FFFFFF" fill-opacity="1"/></g><g><path d="M6.30683,10.34809C6.133356,10.33437,6,10.1874,6,10.01347C6,9.83955,6.133356,9.69257,6.30683,9.69257L6.666966,9.69257C6.7069600000000005,9.33101,6.8003219999999995,8.98316,6.947112,8.66226L6.586915,8.44816C6.480364,8.39525,6.413075,8.286480000000001,6.413503,8.16743C6.413075,8.04789,6.480364,7.9391300000000005,6.586915,7.88621C6.693588,7.83281,6.813633,7.83281,6.920367,7.8999299999999995L7.2805599999999995,8.11354C7.49391,7.8058700000000005,7.77406,7.52514,8.08089,7.31104L7.85411,6.923021C7.7874300000000005,6.829445,7.7874300000000005,6.695695,7.8408,6.588891C7.8941,6.481597,8.01415,6.414477,8.12088,6.414477C8.23971,6.414477,8.34845,6.481597,8.40103,6.588891L8.61443,6.963194C8.93451,6.816217,9.2814,6.722641,9.628219999999999,6.682467L9.628219999999999,6.320902C9.628219999999999,6.146978,9.77489,6,9.94837,6C10.12172,6,10.26845,6.146978,10.26845,6.320902L10.26845,6.682467C10.64195,6.708923,11.0154,6.816217,11.34891,6.963194L11.56232,6.588891L11.56232,6.575173C11.61496,6.468369,11.72364,6.400759,11.842469999999999,6.401249C11.96129,6.400759,12.069980000000001,6.468369,12.12255,6.575173C12.215910000000001,6.695695,12.2026,6.816217,12.135860000000001,6.923021L11.922460000000001,7.29781C12.2426,7.52514,12.50943,7.8058700000000005,12.73615,8.12726L13.149650000000001,7.88621L13.16297,7.88621C13.323070000000001,7.7926400000000005,13.50985,7.84604,13.60315,8.00674C13.69658,8.16743,13.64321,8.35458,13.48311,8.44816L13.4698,8.44816L13.05629,8.6892C13.18971,9.010110000000001,13.28307,9.34472,13.30976,9.69257L13.65652,9.69257C13.77656,9.69257,13.896609999999999,9.74597,13.950040000000001,9.85278C14.01665,9.96007,14.01665,10.08059,13.950040000000001,10.1874C13.8833,10.2942,13.77656,10.34809,13.65652,10.34809L13.30976,10.34809C13.283619999999999,10.68026,13.20247,11.005569999999999,13.06967,11.31129L13.45642,11.53861L13.4698,11.53861C13.616520000000001,11.63219,13.65652,11.81934,13.57647,11.980039999999999C13.48311,12.12701,13.29638,12.18091,13.149650000000001,12.10056L13.13628,12.10056L12.76284,11.88646C12.57605,12.16719,12.33596,12.42146,12.06925,12.63556L12.309339999999999,13.050519999999999C12.4027,13.21073,12.34933,13.39837,12.18929,13.49195C12.02919,13.585519999999999,11.842469999999999,13.532119999999999,11.74911,13.37143L11.52233,12.9834C11.135449999999999,13.18427,10.70863,13.31802,10.26845,13.34448L10.26845,13.69233C10.25507,13.86625,10.12172,14,9.94837,14C9.77489,14,9.641539999999999,13.86625,9.628219999999999,13.69233L9.628219999999999,13.34448C9.20135,13.304310000000001,8.78785,13.17056,8.41434,12.97018L8.187619999999999,13.37143C8.0942,13.532119999999999,7.8941,13.585519999999999,7.74743,13.49195C7.58733,13.39837,7.53397,13.1975,7.62739,13.050519999999999L7.88079,12.608609999999999C7.61402,12.395,7.38724,12.12701,7.2005099999999995,11.84629L6.827006,12.07361C6.733644,12.14073,6.600226,12.14073,6.506926,12.086839999999999C6.400192,12.033439999999999,6.333452,11.913409999999999,6.333452,11.80611C6.333025,11.687059999999999,6.400314,11.57781,6.506926,11.52538L6.907056,11.29757C6.787011,10.989899999999999,6.7069600000000005,10.682220000000001,6.680277,10.34809L6.30683,10.34809ZM9.63821,7.7101299999999995C9.61153,7.68367,9.59822,7.6434999999999995,9.59822,7.60332C9.59822,7.50975,9.6649,7.44263,9.75832,7.44263C9.85162,7.44263,9.91836,7.50975,9.91836,7.60332C9.91836,7.68367,9.85162,7.76353,9.75832,7.76353C9.71826,7.76353,9.67827,7.7503,9.63821,7.7101299999999995ZM11.30554,8.72672C11.198920000000001,8.72672,11.118870000000001,8.63315,11.118870000000001,8.52634C11.118870000000001,8.40582,11.212240000000001,8.32547,11.31897,8.32547C11.42564,8.32547,11.519,8.41905,11.519,8.52634C11.50563,8.63315,11.42564,8.72672,11.30554,8.72672ZM9.34476,10.626660000000001C8.74447,10.626660000000001,8.25098,10.13183,8.25098,9.52971C8.25098,8.92759,8.74447,8.43277,9.34476,8.43277C9.944980000000001,8.41905,10.438600000000001,8.91436,10.438600000000001,9.52971C10.438600000000001,10.13183,9.944980000000001,10.626660000000001,9.34476,10.626660000000001ZM11.45233,10.05148C11.43902,9.73009,11.69242,9.47631,12.01256,9.47631C12.332699999999999,9.47631,12.5861,9.73009,12.59947,10.05148C12.59947,10.37238,12.34601,10.626660000000001,12.025870000000001,10.626660000000001C11.705729999999999,10.626660000000001,11.45233,10.37238,11.45233,10.05148ZM10.105080000000001,12.258600000000001C9.90499,12.05822,9.85162,11.75055,9.95835,11.48305C10.06503,11.22877,10.331859999999999,11.05485,10.61195,11.05485C10.798729999999999,11.05485,10.97208,11.12148,11.118870000000001,11.26895C11.23892,11.4027,11.31897,11.57662,11.31897,11.763770000000001C11.31897,12.05822,11.1455,12.31249,10.878779999999999,12.41929C10.61195,12.526589999999999,10.305119999999999,12.45947,10.105080000000001,12.258600000000001ZM8.7979,12.04499C8.73116,11.97787,8.70447,11.8843,8.74447,11.79072C8.77121,11.697140000000001,8.86458,11.64325,8.95794,11.64325C9.02462,11.64325,9.07798,11.656970000000001,9.13135,11.723600000000001C9.17446,11.76573,9.19858,11.82403,9.19809,11.8843C9.19809,11.97787,9.14472,12.05822,9.0513,12.09839C8.97125,12.13857,8.86464,12.11162,8.7979,12.04499Z" fill-rule="evenodd" fill="#FFFFFF" fill-opacity="1"/></g></g></svg>