<svg xmlns="http://www.w3.org/2000/svg" xmlns:xlink="http://www.w3.org/1999/xlink" fill="none" version="1.1" width="14" height="14" viewBox="0 0 14 14"><defs><clipPath id="master_svg0_234_36077"><rect x="0" y="0" width="14" height="14" rx="0"/></clipPath></defs><g clip-path="url(#master_svg0_234_36077)"><g><path d="M11.375,1.75L2.625,1.75C2.142343,1.75142673,1.75142673,2.142343,1.75,2.625L1.75,8.102229999999999L4.8125,5.068849999999999L6.5625,6.81885L9.31561,4.0656099999999995L7.875,2.625L11.375,2.625L11.375,6.09766C11.69197,6.25528,11.9863,6.45486,12.25,6.69102L12.25,2.625C12.2486,2.142343,11.8577,1.75142631,11.375,1.75ZM8.85596,5.76283C9.68911,5.59779,10.55326,5.70562,11.32031,6.07031L9.93439,4.6843900000000005L8.85596,5.76283ZM6.19568,7.68934L4.8125,6.30615L1.75,9.3357L1.75,11.375C1.75142631,11.8577,2.142343,12.2486,2.625,12.25L6.69047,12.25C5.56583,10.99263,5.36686,9.15864,6.19568,7.68934ZM9.625,8.499939999999999C8.88525,8.49998,8.34685,9.201699999999999,8.538350000000001,9.91624C8.729849999999999,10.63078,9.547,10.96921,10.18763,10.59931C10.82826,10.2294,10.94367,9.3525,10.42057,8.82943C10.21003,8.617750000000001,9.92355,8.49911,9.625,8.499939999999999ZM9.625,6.125C7.69207,6.125,6.125,7.69207,6.125,9.625C6.125,11.55793,7.69207,13.125,9.625,13.125C11.55793,13.125,13.125,11.55793,13.125,9.625C13.125,7.69207,11.55793,6.125,9.625,6.125ZM12.0996,10.0301L11.52744,10.14453C11.46289,10.15758,11.40985,10.20341,11.38758,10.26539Q11.35914,10.34359,11.32414,10.41852C11.29613,10.47816,11.30132,10.54809,11.33781,10.60295L11.66102,11.08789C11.71059,11.16223,11.70081,11.26122,11.63764,11.32441L11.32469,11.63736C11.2615,11.70053,11.1625,11.71032,11.08816,11.66074L10.60295,11.33727C10.54809,11.30077,10.47815,11.29559,10.41852,11.32359Q10.34373,11.35859,10.26539,11.38703C10.20327,11.4094,10.15741,11.46268,10.14453,11.52744L10.0301,12.0996C10.01245,12.1871,9.9355,12.2501,9.84621,12.25L9.403649999999999,12.25C9.31436,12.2501,9.23742,12.1871,9.21977,12.0996L9.10547,11.52744C9.09242,11.46289,9.04659,11.40985,8.98461,11.38758Q8.906410000000001,11.35914,8.831479999999999,11.32414C8.771840000000001,11.29613,8.70191,11.30132,8.64705,11.33781L8.16211,11.66102C8.087769999999999,11.71059,7.98878,11.70081,7.92559,11.63764L7.61264,11.32469C7.54947,11.2615,7.53968,11.1625,7.58926,11.08816L7.91273,10.60295C7.94923,10.54809,7.95441,10.47815,7.92641,10.41852Q7.89141,10.34373,7.86297,10.26539C7.8406,10.20327,7.78732,10.15741,7.72256,10.14453L7.15039,10.0301C7.06286,10.01245,6.99993,9.9355,7,9.84621L7,9.403649999999999C6.99993,9.31436,7.06286,9.23742,7.15039,9.21977L7.72256,9.10547C7.78711,9.09242,7.84015,9.04659,7.86242,8.98461Q7.89086,8.906410000000001,7.92586,8.831479999999999C7.95387,8.771840000000001,7.94868,8.70191,7.91219,8.64705L7.58898,8.16211C7.53941,8.087769999999999,7.54919,7.98878,7.61236,7.92559L7.92531,7.61264C7.9885,7.54947,8.0875,7.53968,8.16184,7.58926L8.64705,7.91273C8.70191,7.94923,8.77185,7.95441,8.831479999999999,7.92641Q8.90627,7.89141,8.98461,7.86297C9.04673,7.8406,9.092590000000001,7.78732,9.10547,7.72256L9.219899999999999,7.15039C9.237549999999999,7.06286,9.314499999999999,6.99993,9.40379,7L9.84635,7C9.93564,6.99993,10.01259,7.06286,10.03024,7.15039L10.14453,7.72256C10.15758,7.78711,10.20341,7.84015,10.26539,7.86242Q10.34359,7.89086,10.41852,7.92586C10.47816,7.95386,10.54809,7.94868,10.60295,7.91219L11.08789,7.58898C11.16223,7.53941,11.26122,7.54919,11.32441,7.61236L11.63736,7.92531C11.70053,7.9885,11.71032,8.0875,11.66074,8.16184L11.33727,8.64705C11.30077,8.70191,11.29559,8.77185,11.32359,8.831479999999999Q11.35859,8.90627,11.38703,8.98461C11.4094,9.04673,11.46268,9.092590000000001,11.52744,9.10547L12.0996,9.219899999999999C12.1871,9.237549999999999,12.2501,9.314499999999999,12.25,9.40379L12.25,9.84635C12.25,9.93559,12.1871,10.01246,12.0996,10.0301Z" fill="#FFFFFF" fill-opacity="1"/></g></g></svg>