<svg xmlns="http://www.w3.org/2000/svg" xmlns:xlink="http://www.w3.org/1999/xlink" fill="none" version="1.1" width="20" height="20" viewBox="0 0 20 20"><g style="opacity:0.9000000357627869;"><g><path d="M18.75,10C18.75,14.8325,14.8325,18.75,10,18.75C5.16751,18.75,1.25,14.8325,1.25,10C1.25,5.16751,5.16751,1.25,10,1.25C14.8325,1.25,18.75,5.16751,18.75,10ZM9.99997,12.5C12.2319,12.5,14.3435,13.0956,16.244300000000003,14.1557C17.037599999999998,12.9662,17.5,11.5371,17.5,10C17.5,5.85786,14.1421,2.5,10,2.5C5.85786,2.5,2.5,5.85786,2.5,10C2.5,11.5371,2.96238,12.9661,3.75564,14.1557C5.65649,13.0956,7.76802,12.5,9.99997,12.5ZM13.475,7.775C13.475,9.69419,11.9192,11.25,10,11.25C8.08081,11.25,6.525,9.69419,6.525,7.775C6.525,5.85581,8.08081,4.3,10,4.3C11.9192,4.3,13.475,5.85581,13.475,7.775ZM7.775,7.775C7.775,9.00383,8.77117,10,10,10C11.22883,10,12.225,9.00383,12.225,7.775C12.225,6.54617,11.22883,5.55,10,5.55C8.77117,5.55,7.775,6.54617,7.775,7.775ZM10,17.5C12.1489,17.5,14.0867,16.5963,15.454,15.1482C13.7743,14.247,11.9339,13.75,9.99997,13.75C8.06603,13.75,6.22562,14.247,4.54593,15.1482C5.91332,16.5963,7.85112,17.5,10,17.5Z" fill-rule="evenodd" fill="#FFFFFF" fill-opacity="1"/></g></g></svg>