<svg xmlns="http://www.w3.org/2000/svg" xmlns:xlink="http://www.w3.org/1999/xlink" fill="none" version="1.1" width="10.768945693969727" height="9.419736862182617" viewBox="0 0 10.768945693969727 9.419736862182617"><g transform="matrix(-1,0,0,1,21.537891387939453,0)"><path d="M19.254875693969726,6.50209L20.41790569396973,6.50209L20.41790569396973,5.08501L21.53784569396973,4.8766L21.53784569396973,9.41974L20.41790569396973,9.04462L20.41790569396973,7.46077L18.608745693969727,7.46077L17.617995693969725,6.16868L18.910255693969727,5.50177L19.254875693969726,6.50209ZM13.396585693969726,6.79386L10.768945693969727,5.16836L18.953355693969726,0L19.901015693969725,0L21.19324569396973,1.95896L21.19324569396973,2.62588L13.999615693969726,6.83555L13.396585693969726,6.83555L13.396585693969726,6.79386ZM14.387325693969727,7.12731L20.590235693969724,3.25105L21.236345693969724,3.91792L14.042715693969726,8.12764L13.396585693969726,8.12764L13.051965693969727,7.79418L12.707345693969726,6.83556Q13.655005693969727,7.50242,13.698095693969726,7.50242Q14.085755693969727,7.25237,14.387325693969727,7.12731Z" fill="#FFFFFF" fill-opacity="1"/></g></svg>