<svg xmlns="http://www.w3.org/2000/svg" xmlns:xlink="http://www.w3.org/1999/xlink" fill="none" version="1.1" width="10.88888931274414" height="9.333333015441895" viewBox="0 0 10.88888931274414 9.333333015441895"><g><path d="M0,0.875C0,0.391745,0.406254,0,0.907407,0L6.35185,0C6.85282,0,7.25926,0.391745,7.25926,0.875L7.25926,3.77344L6.45772,4.08333L5.14198,4.08333C4.97562,4.08333,4.83951,4.21458,4.83951,4.375L4.83951,5.54167C4.83951,5.55807,4.8414,5.57266,4.84329,5.58906C4.88677,6.64818,5.29888,8.22865,6.70914,9.26224C6.5995,9.30781,6.47851,9.33333,6.35185,9.33333L4.53704,9.33333L4.53704,7.875C4.53704,7.39193,4.13059,7,3.62963,7C3.12867,7,2.72222,7.39193,2.72222,7.875L2.72222,9.33333L0.907407,9.33333C0.406254,9.33333,0,8.94141,0,8.45833L0,0.875ZM1.51235,4.08333C1.34523,4.08333,1.20988,4.21458,1.20988,4.375L1.20988,4.95833C1.20988,5.11875,1.34523,5.25,1.51235,5.25L2.11728,5.25C2.28364,5.25,2.41975,5.11875,2.41975,4.95833L2.41975,4.375C2.41975,4.21458,2.28364,4.08333,2.11728,4.08333L1.51235,4.08333ZM3.02469,4.95833C3.02469,5.11875,3.1608,5.25,3.32716,5.25L3.9321,5.25C4.09846,5.25,4.23457,5.11875,4.23457,4.95833L4.23457,4.375C4.23457,4.21458,4.09846,4.08333,3.9321,4.08333L3.32716,4.08333C3.1608,4.08333,3.02469,4.21458,3.02469,4.375L3.02469,4.95833ZM1.20988,2.625C1.20988,2.78542,1.34523,2.91667,1.51235,2.91667L2.11728,2.91667C2.28364,2.91667,2.41975,2.78542,2.41975,2.625L2.41975,2.04167C2.41975,1.88125,2.28364,1.75,2.11728,1.75L1.51235,1.75C1.34523,1.75,1.20988,1.88125,1.20988,2.04167L1.20988,2.625ZM3.32716,1.75C3.1608,1.75,3.02469,1.88125,3.02469,2.04167L3.02469,2.625C3.02469,2.78542,3.1608,2.91667,3.32716,2.91667L3.9321,2.91667C4.09846,2.91667,4.23457,2.78542,4.23457,2.625L4.23457,2.04167C4.23457,1.88125,4.09846,1.75,3.9321,1.75L3.32716,1.75ZM4.83951,2.625C4.83951,2.78542,4.97562,2.91667,5.14198,2.91667L5.74691,2.91667C5.91327,2.91667,6.04938,2.78542,6.04938,2.625L6.04938,2.04167C6.04938,1.88125,5.91327,1.75,5.74691,1.75L5.14198,1.75C4.97562,1.75,4.83951,1.88125,4.83951,2.04167L4.83951,2.625ZM7.99842,4.11432C8.10617,4.0724,8.22716,4.0724,8.33492,4.11432L10.6034,4.98932C10.7755,5.05677,10.8889,5.21719,10.8889,5.39583C10.8889,6.54974,10.3993,8.47292,8.34059,9.30052C8.22905,9.34427,8.10428,9.34427,7.99275,9.30052C5.93407,8.47292,5.44444,6.54974,5.44444,5.39583C5.44444,5.21719,5.54086,5.05677,5.7299,4.98932L7.99842,4.11432ZM8.16667,4.99115L8.16667,8.41641C9.45594,7.81484,9.89641,6.61172,9.97014,5.67109L8.16667,4.99115Z" fill="#FFFFFF" fill-opacity="1"/></g></svg>